<?xml version="1.0" standalone="no"?>
<!DOCTYPE svg PUBLIC "-//W3C//DTD SVG 20010904//EN"
 "http://www.w3.org/TR/2001/REC-SVG-20010904/DTD/svg10.dtd">
<svg version="1.0" xmlns="http://www.w3.org/2000/svg"
 width="429.000000pt" height="429.000000pt" viewBox="0 0 429.000000 429.000000"
 preserveAspectRatio="xMidYMid meet">
<metadata>
Created by potrace 1.11, written by Peter Selinger 2001-2013
</metadata>
<g transform="translate(0.000000,429.000000) scale(0.100000,-0.100000)"
fill="#000000" stroke="none">
<path d="M679 2854 c-10 -13 -25 -15 -64 -11 -33 3 -59 0 -75 -9 -14 -7 -34
-13 -46 -14 -73 -1 -258 -152 -286 -233 -8 -23 -21 -58 -28 -77 -21 -54 -25
-261 -6 -299 9 -16 16 -40 16 -53 0 -33 28 -74 96 -142 66 -66 124 -106 153
-106 10 0 24 -7 31 -15 7 -8 23 -15 37 -15 13 0 35 -7 48 -16 14 -9 33 -13 44
-9 12 4 30 0 43 -9 12 -9 41 -16 64 -16 23 0 55 -7 70 -15 16 -8 43 -15 59
-15 17 -1 41 -7 55 -15 14 -8 35 -14 47 -15 31 0 88 -53 112 -104 26 -52 26
-53 1 -101 -26 -51 -77 -103 -120 -122 -42 -19 -345 -22 -363 -4 -6 6 -25 11
-43 11 -18 0 -45 6 -61 14 -15 8 -46 20 -68 26 -22 7 -77 30 -123 52 -88 42
-119 44 -107 5 4 -12 6 -79 5 -149 -2 -165 14 -197 95 -198 10 0 29 -12 40
-27 20 -24 24 -25 56 -14 31 11 35 10 48 -9 17 -25 76 -27 102 -4 26 24 93 10
107 -22 14 -29 47 -31 115 -8 53 18 154 15 203 -6 41 -18 88 -6 81 20 -8 31
59 43 83 15 7 -8 21 -15 32 -15 23 0 36 29 17 41 -11 6 -8 9 9 9 12 0 22 -5
22 -11 0 -6 12 -9 28 -7 21 2 27 8 25 26 -3 25 12 30 21 7 12 -31 41 -5 51 45
3 18 59 74 91 93 8 4 14 18 14 31 0 13 7 29 15 36 8 7 15 25 15 41 0 16 5 29
10 29 6 0 10 12 10 28 0 41 11 73 23 65 14 -8 3 175 -12 190 -6 6 -11 28 -11
48 0 105 -87 203 -258 292 -93 48 -140 62 -247 74 -27 3 -59 11 -70 19 -11 8
-38 14 -61 14 -25 0 -47 6 -54 16 -8 8 -25 14 -41 12 -15 -1 -37 3 -50 9 -13
6 -31 14 -39 17 -42 17 -77 46 -92 77 -18 36 -24 95 -10 101 5 2 15 16 23 32
8 16 21 32 29 36 105 52 98 51 276 52 109 0 178 -4 192 -11 11 -6 31 -11 43
-11 27 0 83 -17 122 -36 16 -8 39 -14 52 -14 13 0 27 -4 30 -10 3 -5 17 -10
31 -10 l24 0 0 148 c0 198 8 188 -175 208 -27 3 -64 12 -81 19 -21 10 -60 13
-127 11 -70 -2 -102 1 -114 10 -27 20 -167 19 -184 -2z"/>
<path d="M2651 2836 c-8 -10 -10 -240 -9 -852 l3 -838 35 -10 c19 -5 165 -11
324 -13 168 -2 297 -8 308 -14 14 -7 24 -7 34 2 23 19 16 29 -18 29 -17 0 -28
3 -25 7 10 9 248 3 267 -7 9 -5 22 -5 31 1 12 8 11 12 -5 24 -19 14 -17 15 22
15 23 0 42 -4 42 -10 0 -14 37 -13 46 1 3 6 0 15 -7 20 -24 14 -3 19 31 8 25
-9 37 -9 51 0 10 6 25 11 33 11 7 0 19 7 26 15 7 8 21 15 31 15 11 0 19 5 19
10 0 6 7 10 17 10 28 0 182 155 243 245 14 20 33 44 43 53 21 20 22 58 3 69
-19 11 -24 45 -8 50 6 3 12 -3 12 -12 0 -9 6 -15 13 -13 18 7 21 40 5 49 -8 5
-15 24 -16 44 -1 37 11 47 23 18 6 -17 7 -17 21 1 19 27 19 57 -1 50 -13 -5
-15 17 -15 166 0 146 2 171 14 161 11 -9 15 -8 20 5 9 23 8 24 -14 24 -13 0
-20 7 -20 19 0 11 -7 26 -15 35 -8 8 -15 28 -15 45 0 16 -4 33 -10 36 -5 3
-10 16 -10 29 0 12 -7 31 -15 42 -8 10 -15 27 -15 37 0 10 -7 20 -15 23 -8 4
-15 13 -15 21 0 7 -11 25 -25 39 -14 14 -25 31 -25 38 0 17 -105 116 -123 116
-7 0 -24 12 -38 26 -13 14 -44 35 -69 47 -25 11 -57 30 -72 40 -14 11 -31 16
-37 13 -6 -4 -21 0 -33 8 -12 9 -39 16 -60 16 -20 0 -40 5 -43 10 -3 6 -48 10
-98 10 -65 1 -98 5 -111 15 -28 21 -717 22 -735 1z m743 -341 c11 -8 27 -15
37 -15 9 0 30 -7 45 -15 16 -8 37 -15 47 -15 18 0 41 -15 110 -71 43 -36 115
-180 121 -244 3 -27 9 -78 13 -112 6 -45 5 -69 -4 -85 -7 -13 -12 -46 -13 -75
0 -28 -4 -55 -10 -58 -5 -3 -10 -16 -10 -28 0 -98 -220 -284 -318 -269 -20 2
-41 -2 -57 -12 -19 -12 -51 -16 -145 -16 l-120 0 0 510 0 509 138 4 c75 1 139
3 142 4 3 2 14 -4 24 -12z m776 -910 c0 -8 -4 -15 -10 -15 -5 0 -10 7 -10 15
0 8 5 15 10 15 6 0 10 -7 10 -15z m-47 -65 c-3 -11 -9 -20 -14 -20 -14 0 -11
28 4 33 6 3 13 6 14 6 0 1 -1 -8 -4 -19z m-98 -120 c-33 -33 -64 -60 -69 -60
-5 0 20 29 55 64 35 35 66 62 68 60 3 -3 -22 -31 -54 -64z m-131 -131 c-7 -11
-34 -12 -34 -1 0 14 11 21 26 15 8 -3 11 -9 8 -14z m-54 -19 c0 -5 -9 -10 -21
-10 -11 0 -17 5 -14 10 3 6 13 10 21 10 8 0 14 -4 14 -10z m-59 -33 c-13 -13
-26 -3 -16 12 3 6 11 8 17 5 6 -4 6 -10 -1 -17z"/>
</g>
</svg>
